<?xml version="1.0" standalone="no"?>
<!DOCTYPE svg PUBLIC "-//W3C//DTD SVG 20010904//EN"
 "http://www.w3.org/TR/2001/REC-SVG-20010904/DTD/svg10.dtd">
<svg version="1.0" xmlns="http://www.w3.org/2000/svg"
 width="260.000000pt" height="260.000000pt" viewBox="0 0 260.000000 260.000000"
 preserveAspectRatio="xMidYMid meet">
<metadata>
Created by potrace 1.11, written by Peter Selinger 2001-2013
</metadata>
<g transform="translate(0.000000,260.000000) scale(0.100000,-0.100000)"
fill="#000000" stroke="none">
<path d="M0 1300 l0 -1300 1300 0 1300 0 0 1300 0 1300 -1300 0 -1300 0 0
-1300z m1155 13 c93 -247 170 -456 173 -465 4 -17 -8 -18 -147 -18 l-150 0
-22 75 -22 75 -163 0 -162 0 -23 -75 -22 -75 -148 0 -148 0 28 78 c16 42 92
246 170 452 78 206 143 381 146 388 3 9 45 12 163 12 l159 0 168 -447z m923
432 c102 -31 162 -110 162 -215 0 -89 -45 -164 -111 -185 -29 -10 -23 -18 26
-39 90 -37 146 -140 130 -244 -9 -62 -50 -136 -93 -168 -68 -53 -101 -57 -449
-62 l-323 -4 0 466 0 466 303 0 c244 0 313 -3 355 -15z"/>
<path d="M795 1413 c-14 -48 -35 -115 -46 -147 -29 -90 -32 -86 76 -86 52 0
95 4 95 9 0 12 -89 303 -94 308 -2 3 -16 -35 -31 -84z"/>
<path d="M1720 1484 l0 -86 96 4 c91 4 98 6 120 32 27 30 30 53 12 90 -14 33
-60 46 -155 46 l-73 0 0 -86z"/>
<path d="M1720 1125 l0 -97 109 4 c92 3 113 6 131 23 32 29 42 62 30 99 -16
49 -43 60 -162 64 l-108 4 0 -97z"/>
</g>
</svg>
